<?xml version="1.0" standalone="no"?>
<!DOCTYPE svg PUBLIC "-//W3C//DTD SVG 20010904//EN"
 "http://www.w3.org/TR/2001/REC-SVG-20010904/DTD/svg10.dtd">
<svg version="1.0" xmlns="http://www.w3.org/2000/svg"
 width="512.000000pt" height="512.000000pt" viewBox="0 0 512.000000 512.000000"
 preserveAspectRatio="xMidYMid meet">

<g transform="translate(0.000000,512.000000) scale(0.100000,-0.100000)"
fill="#000000" stroke="none">
<path d="M2400 5014 c-19 -2 -80 -9 -135 -15 -780 -83 -1505 -581 -1879 -1290
-136 -258 -224 -540 -268 -854 -16 -116 -16 -474 0 -590 20 -145 52 -292 89
-415 233 -771 822 -1373 1590 -1626 255 -84 480 -118 773 -118 282 1 502 35
753 118 854 281 1490 1006 1652 1884 39 209 51 411 37 608 -44 606 -276 1130
-687 1553 -397 408 -888 654 -1460 731 -85 11 -406 21 -465 14z m475 -244
c158 -22 354 -73 489 -126 770 -306 1302 -985 1412 -1804 18 -139 18 -419 -1
-567 -70 -548 -358 -1071 -786 -1428 -240 -201 -563 -368 -863 -445 -210 -54
-337 -70 -566 -70 -352 -1 -648 67 -968 220 -673 324 -1135 955 -1243 1699
-18 125 -21 177 -16 366 5 244 21 353 81 561 147 509 474 955 916 1247 457
302 998 423 1545 347z"/>
<path d="M2416 3980 c-354 -56 -638 -263 -797 -579 -212 -424 -99 -989 319
-1595 144 -209 326 -428 491 -591 80 -78 83 -80 131 -80 48 0 51 2 131 80 310
306 611 726 754 1052 222 507 214 919 -26 1274 -63 93 -202 225 -303 288 -97
60 -228 113 -338 137 -89 19 -282 26 -362 14z m349 -235 c94 -26 233 -97 311
-158 132 -106 229 -252 280 -422 23 -77 27 -109 27 -220 2 -298 -111 -605
-358 -975 -146 -217 -442 -576 -469 -567 -21 7 -240 263 -345 404 -282 377
-431 698 -472 1018 -57 446 243 854 689 935 68 13 267 3 337 -15z"/>
<path d="M2454 3525 c-96 -21 -172 -63 -245 -135 -275 -272 -151 -732 226
-836 64 -18 185 -18 251 0 257 68 417 328 363 588 -41 195 -210 356 -409 388
-81 12 -110 12 -186 -5z m184 -220 c195 -58 265 -297 130 -450 -55 -62 -107
-87 -193 -93 -93 -6 -158 21 -220 90 -136 151 -76 382 117 449 65 23 100 23
166 4z"/>
</g>
</svg>
