<?xml version="1.0" standalone="no"?>
<!DOCTYPE svg PUBLIC "-//W3C//DTD SVG 20010904//EN"
 "http://www.w3.org/TR/2001/REC-SVG-20010904/DTD/svg10.dtd">
<svg version="1.0" xmlns="http://www.w3.org/2000/svg"
 width="512.000000pt" height="512.000000pt" viewBox="0 0 512.000000 512.000000"
 preserveAspectRatio="xMidYMid meet">

<g transform="translate(0.000000,512.000000) scale(0.100000,-0.100000)"
fill="#000000" stroke="none">
<path d="M2235 5105 c-464 -66 -848 -221 -1210 -490 -561 -416 -919 -1031
-1011 -1735 -23 -179 -15 -576 15 -743 49 -268 118 -481 232 -713 278 -566
771 -1019 1356 -1248 214 -84 453 -142 681 -167 146 -15 510 -7 652 16 421 67
817 235 1168 497 126 94 387 355 483 483 288 386 460 823 510 1293 17 168 7
525 -20 677 -98 557 -342 1028 -728 1406 -135 133 -165 159 -283 246 -319 235
-688 391 -1091 463 -160 29 -595 37 -754 15z m695 -229 c695 -121 1279 -518
1640 -1116 307 -507 406 -1129 274 -1718 -202 -903 -938 -1611 -1856 -1786
-303 -58 -704 -45 -1005 33 -836 216 -1488 873 -1698 1711 -52 211 -60 278
-60 560 0 282 8 349 60 560 133 530 443 996 880 1320 343 254 719 400 1165
454 87 10 509 -3 600 -18z"/>
<path d="M1482 3725 c-173 -38 -327 -164 -399 -325 -53 -117 -54 -137 -51
-874 l3 -681 27 -74 c64 -176 202 -310 373 -364 l70 -22 1055 0 1055 0 70 22
c175 55 318 198 376 375 l24 73 0 705 0 705 -24 73 c-57 174 -197 316 -370
375 l-66 22 -1040 2 c-852 1 -1051 -1 -1103 -12z m2105 -243 c18 -6 -59 -72
-495 -427 -284 -230 -523 -419 -532 -419 -8 0 -247 189 -532 419 -433 352
-513 421 -495 427 12 3 474 6 1027 6 553 0 1015 -3 1027 -6z m-1692 -643 c308
-250 574 -465 592 -478 26 -20 40 -23 81 -19 48 5 64 17 643 486 l593 482 15
-33 c14 -28 16 -118 16 -717 0 -681 0 -685 -22 -732 -30 -66 -96 -133 -162
-165 l-56 -28 -1035 0 -1035 0 -56 28 c-66 32 -132 99 -162 165 -22 47 -22 51
-22 722 0 553 3 683 14 717 9 28 18 40 25 35 6 -5 263 -213 571 -463z"/>
</g>
</svg>
