<?xml version="1.0" standalone="no"?>
<!DOCTYPE svg PUBLIC "-//W3C//DTD SVG 20010904//EN"
 "http://www.w3.org/TR/2001/REC-SVG-20010904/DTD/svg10.dtd">
<svg version="1.0" xmlns="http://www.w3.org/2000/svg"
 width="512.000000pt" height="512.000000pt" viewBox="0 0 512.000000 512.000000"
 preserveAspectRatio="xMidYMid meet">

<g transform="translate(0.000000,512.000000) scale(0.100000,-0.100000)"
fill="#000000" stroke="none">
<path d="M2145 5109 c-38 -5 -119 -21 -180 -34 -60 -14 -117 -25 -127 -25 -9
0 -29 -6 -45 -14 -15 -8 -59 -24 -98 -36 -141 -43 -286 -104 -380 -160 -27
-16 -80 -45 -117 -65 -36 -19 -70 -40 -73 -46 -4 -6 -37 -30 -74 -54 -119 -78
-354 -275 -376 -315 -6 -11 -34 -44 -63 -74 -30 -31 -65 -72 -79 -93 -14 -21
-32 -42 -39 -46 -8 -4 -14 -13 -14 -20 -1 -7 -14 -28 -30 -47 -17 -19 -30 -38
-30 -42 0 -5 -19 -36 -43 -71 -93 -134 -218 -408 -264 -577 -8 -30 -19 -60
-24 -65 -13 -17 -59 -222 -70 -315 -14 -113 -15 -702 -1 -815 15 -122 42 -233
97 -399 63 -186 89 -252 119 -306 14 -25 39 -73 55 -107 74 -155 235 -381 389
-547 238 -254 450 -413 754 -564 166 -83 455 -190 571 -211 32 -6 61 -12 65
-15 4 -2 86 -12 181 -21 185 -18 546 -16 736 3 93 10 312 58 330 73 6 4 29 12
50 18 38 9 119 37 232 80 62 23 282 138 362 189 114 72 268 187 333 248 37 35
79 71 93 80 15 9 39 35 55 58 16 23 50 63 77 91 26 27 53 57 58 66 31 52 121
176 134 186 14 10 38 50 55 93 3 8 15 29 25 45 50 80 101 175 107 200 4 14 17
48 29 73 12 26 40 99 60 162 21 63 42 119 47 125 4 5 8 19 8 31 0 12 9 60 20
106 41 176 50 275 50 584 0 310 -10 422 -51 588 -10 43 -19 87 -19 98 0 10 -4
26 -10 36 -5 9 -25 65 -44 124 -20 59 -42 120 -49 135 -8 16 -25 57 -37 93
-12 36 -30 74 -40 85 -10 11 -44 71 -75 132 -31 62 -61 115 -66 118 -5 4 -38
48 -73 99 -201 287 -545 599 -831 751 -49 26 -110 59 -135 74 -25 14 -72 36
-105 49 -130 51 -222 84 -255 94 -19 6 -46 16 -60 23 -14 7 -65 21 -115 30
-49 10 -121 25 -160 33 -84 17 -729 26 -840 11z m700 -224 c72 -8 171 -24 220
-36 107 -25 327 -97 423 -137 91 -39 279 -142 372 -204 151 -101 410 -325 410
-354 0 -7 12 -21 26 -30 33 -22 187 -227 250 -334 109 -186 152 -276 205 -433
22 -67 45 -131 50 -142 20 -44 60 -244 74 -368 31 -279 10 -619 -52 -847 -8
-30 -27 -91 -43 -135 -16 -44 -38 -112 -50 -152 -12 -40 -40 -103 -62 -140
-22 -37 -46 -82 -53 -100 -11 -27 -63 -119 -110 -194 -29 -47 -164 -220 -218
-278 -90 -97 -221 -216 -307 -279 -41 -31 -88 -68 -105 -82 -16 -15 -77 -53
-135 -84 -58 -32 -112 -62 -120 -67 -56 -35 -283 -125 -364 -145 -33 -8 -70
-19 -81 -24 -32 -15 -134 -38 -261 -61 -154 -27 -403 -35 -559 -20 -147 15
-355 55 -397 76 -17 8 -41 15 -52 15 -18 0 -81 22 -286 100 -58 21 -331 172
-378 209 -21 15 -73 54 -117 86 -149 109 -342 311 -471 491 -132 184 -276 478
-320 656 -8 35 -22 77 -30 95 -21 47 -61 251 -75 382 -15 141 -7 429 16 561
22 130 54 266 71 298 8 15 14 36 14 48 0 24 51 165 86 239 13 29 24 59 24 67
0 8 9 27 20 41 11 14 35 53 53 87 64 123 75 140 191 294 98 130 261 300 372
388 99 79 242 181 284 203 19 10 62 33 95 51 220 121 523 222 765 255 204 27
395 29 625 4z"/>
<path d="M1534 4102 c-63 -22 -122 -71 -249 -204 -206 -217 -273 -364 -282
-624 -6 -169 10 -281 57 -389 4 -11 19 -47 31 -80 29 -75 160 -334 191 -378
13 -17 34 -53 48 -78 14 -25 64 -98 112 -162 379 -506 892 -902 1398 -1081 41
-14 84 -31 95 -36 11 -5 64 -19 119 -31 82 -18 120 -20 230 -17 156 6 240 25
355 81 115 56 186 110 317 241 139 138 151 162 155 286 4 158 16 140 -305 459
-156 155 -298 293 -317 305 -52 35 -95 46 -175 46 -122 0 -161 -23 -344 -205
-86 -85 -161 -155 -168 -155 -16 0 -165 114 -284 217 -138 119 -327 329 -443
489 -7 10 30 53 152 176 193 195 213 229 213 359 0 64 -5 92 -22 128 -16 32
-107 132 -312 338 -283 285 -290 292 -353 312 -77 25 -151 26 -219 3z m387
-499 c130 -129 242 -245 249 -258 21 -39 -6 -77 -165 -235 -176 -175 -195
-205 -195 -319 0 -97 6 -108 138 -276 182 -230 570 -591 721 -669 71 -38 146
-45 226 -21 55 16 68 26 219 180 89 89 171 166 184 170 15 4 33 0 55 -14 45
-27 485 -474 496 -503 6 -15 4 -32 -5 -49 -15 -30 -146 -155 -219 -209 -113
-83 -322 -135 -452 -111 -389 72 -889 369 -1249 743 -284 296 -505 642 -613
962 -73 216 -67 332 25 526 40 82 60 109 148 199 120 123 150 145 180 129 12
-6 127 -116 257 -245z"/>
</g>
</svg>
