<?xml version="1.0" encoding="utf-8"?>
<!-- Generator: Adobe Illustrator 23.0.1, SVG Export Plug-In . SVG Version: 6.00 Build 0)  -->
<svg version="1.1" id="Слой_1" xmlns="http://www.w3.org/2000/svg" xmlns:xlink="http://www.w3.org/1999/xlink" x="0px" y="0px"
	 viewBox="0 0 512 512" style="enable-background:new 0 0 512 512;" xml:space="preserve">
<style type="text/css">
	.st0{fill:#F9F9F9;}
	.st1{fill:#FFFFFF;}
</style>
<path d="M239,0.7c-3,0.2-10.7,1-17,1.9c-45,6-86.9,23.6-124,52.2c-11,8.5-34.7,32.3-43.2,43.3c-23.7,30.7-40.3,65.4-48.2,101.1
	C-10.3,275.2,7,352.1,54.9,414c8,10.4,30.9,33.6,41,41.5c36.9,29,77.2,46.5,123.6,53.7c18.5,2.8,52.1,3,70,0.4
	c47.3-6.9,87.4-23.7,124.5-52.5c10.4-8,33.6-30.9,41.6-41.1c29.1-36.9,47.3-79.6,54-126.5c2.4-16.5,2.4-50.5,0-67
	c-5.7-39.9-19.2-75.8-40.4-107.5C417.8,38,331.5-4.9,239,0.7z"/>
<path class="st0" d="M301.9,98.5c31.6,3.9,42.2,7,56.8,16.4c17.1,11.1,31.7,27.1,39.8,43.6c13.9,28.6,16.4,98.7,5,143
	c-7,27.1-37.1,57.7-66,66.8c-14.2,4.5-43.1,7.7-76.3,8.4l-28.2,0.6l-17.2,17.9c-9.4,9.9-18.5,18.6-20.1,19.5
	c-4.2,2.1-11.1,1.2-14.4-1.8c-4.9-4.7-5.3-6.5-5.3-25.9c0-17.7-0.1-18.2-2.1-18.7c-1.2-0.4-6-2.5-10.8-4.8
	c-21.1-10.3-41.3-30.6-50.5-50.7c-7.1-15.3-11.1-42.8-11.1-76.3c0-34.6,4-61.5,11.5-77.1c12.3-25.6,39.6-49,64.7-55.4
	c8.7-2.3,31-5.6,46.3-6.9C239.1,95.7,287,96.6,301.9,98.5z"/>
<path d="M226,125.1c-15.6,1.3-37.7,4.7-44.6,7c-13.9,4.5-34.2,22.3-41.6,36.5c-10.6,20.4-13.7,72.7-6.7,113.2
	c2.5,14.2,4.7,20.2,10.8,28.8c9.3,13.3,24.2,25.3,37.1,30.1l7,2.6l0.2,29.6c0.3,29.1,0.3,29.6,2.3,29.6c1.4,0,10.8-8.9,28-26.5
	l25.8-26.5l19.1-0.6c32.5-1.1,60.8-5,71.5-10c17.2-8,35.7-27,40.5-41.7c4.8-14.6,8.2-48.7,7.2-70.7c-1.3-27.3-4.7-46.4-10.3-57.4
	c-7.3-14.6-27.4-32.4-41.7-37C311.4,125.8,260.1,122.4,226,125.1z"/>
<path class="st1" d="M270.8,158.6c24.3,5,43.8,20.4,54.2,42.7c4.5,9.8,6.8,19.5,7.7,32.2l0.6,9.4l-2.6,1.2c-2.3,1-3,0.9-4.6-0.5
	c-1.5-1.3-2.1-3.8-2.6-10.9c-1.6-20.4-7.2-33.4-20-46.2c-12-12.1-23.8-17.6-41.8-19.7c-9.6-1.1-12.7-2.4-12.7-5.3
	C249,156.8,257,155.7,270.8,158.6z"/>
<path class="st1" d="M211.8,171.7c6.1,6.6,17.6,23.4,19.3,28.2c2,5.8,0.4,9.8-6.8,16.7c-6.4,6.1-6.6,6.4-6,10.4
	c1.2,9.4,11.4,26,21.4,34.9c6.4,5.7,19.8,13.1,25.8,14.2c5.1,0.9,8-0.6,12.9-6.5c4.6-5.6,6.7-6.8,11.9-6.8c4.1,0.1,10.7,3.9,24.2,14
	c13.7,10.3,15.4,13.6,11.4,21.9c-3.5,7.3-14.3,17.6-20.5,19.7c-5,1.6-5.4,1.6-11.5-0.4c-17.6-5.9-45.9-22.3-62.9-36.5
	c-14-11.6-26.5-27.1-37.8-46.5c-7.2-12.4-18.2-37.6-18.2-41.7c0-10.3,17.3-27.2,28-27.3C205.9,166,207.2,166.9,211.8,171.7z"/>
<path class="st1" d="M271.9,178.5c20.2,4.8,35,19.3,39.6,38.7c2.7,11.5,1.5,19.8-2.7,19.8c-2.6,0-4.8-3.4-4.8-7.4
	c0-6.1-2.7-16.3-5.7-21.9c-3.3-6-11.5-13.6-18-16.7c-2.6-1.2-8.7-3.1-13.5-4c-10.2-2.1-10.8-2.4-10.8-5.4
	C256,176.7,260.5,175.8,271.9,178.5z"/>
<path class="st1" d="M276.5,199.7c9.7,3.3,17.1,14.3,16.3,24.4c-0.3,4.9-2.7,7.1-5.5,5.3c-1.8-1.1-2.1-1.9-4.3-10.4
	c-1.5-5.7-6.7-10.7-11.8-11.5c-6.8-1-8.7-1.9-9-4.3C261.4,198,267.3,196.5,276.5,199.7z"/>
</svg>
