<svg aria-hidden="true" style="position: absolute; width: 0; height: 0; overflow: hidden;" version="1.1" xmlns="http://www.w3.org/2000/svg" xmlns:xlink="http://www.w3.org/1999/xlink">
<defs>
<symbol id="icon-viber" viewBox="0 0 32 32">
<path fill="#000" style="fill: var(--color1, #000)" d="M14.938 0.044c-0.188 0.012-0.669 0.063-1.063 0.119-2.813 0.375-5.431 1.475-7.75 3.263-0.688 0.531-2.169 2.019-2.7 2.706-1.481 1.919-2.519 4.088-3.013 6.319-1.056 4.75 0.025 9.556 3.019 13.425 0.5 0.65 1.931 2.1 2.563 2.594 2.306 1.813 4.825 2.906 7.725 3.356 1.156 0.175 3.256 0.188 4.375 0.025 2.956-0.431 5.462-1.481 7.781-3.281 0.65-0.5 2.1-1.931 2.6-2.569 1.819-2.306 2.956-4.975 3.375-7.906 0.15-1.031 0.15-3.156 0-4.188-0.356-2.494-1.2-4.738-2.525-6.719-3.212-4.813-8.606-7.494-14.387-7.144z"></path>
<path fill="#f9f9f9" style="fill: var(--color2, #f9f9f9)" d="M18.869 6.156c1.975 0.244 2.637 0.438 3.55 1.025 1.069 0.694 1.981 1.694 2.488 2.725 0.869 1.787 1.025 6.169 0.313 8.938-0.438 1.694-2.319 3.606-4.125 4.175-0.887 0.281-2.694 0.481-4.769 0.525l-1.762 0.038-1.075 1.119c-0.588 0.619-1.156 1.163-1.256 1.219-0.262 0.131-0.694 0.075-0.9-0.113-0.306-0.294-0.331-0.406-0.331-1.619 0-1.106-0.006-1.137-0.131-1.169-0.075-0.025-0.375-0.156-0.675-0.3-1.319-0.644-2.581-1.913-3.156-3.169-0.444-0.956-0.694-2.675-0.694-4.769 0-2.162 0.25-3.844 0.719-4.819 0.769-1.6 2.475-3.063 4.044-3.463 0.544-0.144 1.938-0.35 2.894-0.431 0.944-0.088 3.938-0.031 4.869 0.088z"></path>
<path fill="#000" style="fill: var(--color1, #000)" d="M14.125 7.819c-0.975 0.081-2.356 0.294-2.787 0.438-0.869 0.281-2.138 1.394-2.6 2.281-0.662 1.275-0.856 4.544-0.419 7.075 0.156 0.887 0.294 1.262 0.675 1.8 0.581 0.831 1.512 1.581 2.319 1.881l0.438 0.163 0.012 1.85c0.019 1.819 0.019 1.85 0.144 1.85 0.088 0 0.675-0.556 1.75-1.656l1.613-1.656 1.194-0.038c2.031-0.069 3.8-0.313 4.469-0.625 1.075-0.5 2.231-1.688 2.531-2.606 0.3-0.913 0.512-3.044 0.45-4.419-0.081-1.706-0.294-2.9-0.644-3.588-0.456-0.912-1.712-2.025-2.606-2.313-1.2-0.394-4.406-0.606-6.537-0.438z"></path>
<path fill="#fff" style="fill: var(--color3, #fff)" d="M16.925 9.912c1.519 0.313 2.738 1.275 3.387 2.669 0.281 0.613 0.425 1.219 0.481 2.012l0.038 0.588-0.163 0.075c-0.144 0.063-0.188 0.056-0.288-0.031-0.094-0.081-0.131-0.238-0.163-0.681-0.1-1.275-0.45-2.088-1.25-2.887-0.75-0.756-1.488-1.1-2.613-1.231-0.6-0.069-0.794-0.15-0.794-0.331 0-0.294 0.5-0.363 1.363-0.181z"></path>
<path fill="#fff" style="fill: var(--color3, #fff)" d="M13.238 10.731c0.381 0.412 1.1 1.463 1.206 1.762 0.125 0.363 0.025 0.613-0.425 1.044-0.4 0.381-0.412 0.4-0.375 0.65 0.075 0.588 0.713 1.625 1.338 2.181 0.4 0.356 1.237 0.819 1.612 0.887 0.319 0.056 0.5-0.038 0.806-0.406 0.288-0.35 0.419-0.425 0.744-0.425 0.256 0.006 0.669 0.244 1.512 0.875 0.856 0.644 0.962 0.85 0.712 1.369-0.219 0.456-0.894 1.1-1.281 1.231-0.313 0.1-0.337 0.1-0.719-0.025-1.1-0.369-2.869-1.394-3.931-2.281-0.875-0.725-1.656-1.694-2.362-2.906-0.45-0.775-1.137-2.35-1.137-2.606 0-0.644 1.081-1.7 1.75-1.706 0.181 0 0.262 0.056 0.55 0.356z"></path>
<path fill="#fff" style="fill: var(--color3, #fff)" d="M16.994 11.156c1.262 0.3 2.188 1.206 2.475 2.419 0.169 0.719 0.094 1.238-0.169 1.238-0.163 0-0.3-0.213-0.3-0.463 0-0.381-0.169-1.019-0.356-1.369-0.206-0.375-0.719-0.85-1.125-1.044-0.163-0.075-0.544-0.194-0.844-0.25-0.637-0.131-0.675-0.15-0.675-0.338 0-0.306 0.281-0.363 0.994-0.194z"></path>
<path fill="#fff" style="fill: var(--color3, #fff)" d="M17.281 12.481c0.606 0.206 1.069 0.894 1.019 1.525-0.019 0.306-0.169 0.444-0.344 0.331-0.113-0.069-0.131-0.119-0.269-0.65-0.094-0.356-0.419-0.669-0.738-0.719-0.425-0.063-0.544-0.119-0.563-0.269-0.050-0.325 0.319-0.419 0.894-0.219z"></path>
</symbol>
<symbol id="icon-phone" viewBox="0 0 32 32">
<path d="M13.406 0.069c-0.238 0.031-0.744 0.131-1.125 0.212-0.375 0.088-0.731 0.156-0.794 0.156-0.056 0-0.181 0.037-0.281 0.088-0.094 0.050-0.369 0.15-0.613 0.225-0.881 0.269-1.787 0.65-2.375 1-0.169 0.1-0.5 0.281-0.731 0.406-0.225 0.119-0.438 0.25-0.456 0.288-0.025 0.038-0.231 0.188-0.463 0.337-0.744 0.487-2.213 1.719-2.35 1.969-0.037 0.069-0.213 0.275-0.394 0.463-0.188 0.194-0.406 0.45-0.494 0.581s-0.2 0.263-0.244 0.287c-0.050 0.025-0.087 0.081-0.087 0.125-0.006 0.044-0.087 0.175-0.188 0.294-0.106 0.119-0.188 0.237-0.188 0.263 0 0.031-0.119 0.225-0.269 0.444-0.581 0.837-1.363 2.55-1.65 3.606-0.050 0.188-0.119 0.375-0.15 0.406-0.081 0.106-0.369 1.387-0.438 1.969-0.087 0.706-0.094 4.387-0.006 5.094 0.094 0.762 0.262 1.456 0.606 2.494 0.394 1.163 0.556 1.575 0.744 1.913 0.087 0.156 0.244 0.456 0.344 0.669 0.462 0.969 1.469 2.381 2.431 3.419 1.487 1.587 2.813 2.581 4.713 3.525 1.037 0.519 2.844 1.188 3.569 1.319 0.2 0.038 0.381 0.075 0.406 0.094 0.025 0.012 0.537 0.075 1.131 0.131 1.156 0.113 3.412 0.1 4.6-0.019 0.581-0.063 1.95-0.363 2.063-0.456 0.038-0.025 0.181-0.075 0.313-0.113 0.238-0.056 0.744-0.231 1.45-0.5 0.387-0.144 1.762-0.863 2.262-1.181 0.712-0.45 1.675-1.169 2.081-1.55 0.231-0.219 0.494-0.444 0.581-0.5 0.094-0.056 0.244-0.219 0.344-0.363s0.313-0.394 0.481-0.569c0.163-0.169 0.331-0.356 0.363-0.413 0.194-0.325 0.756-1.1 0.837-1.163 0.087-0.063 0.238-0.313 0.344-0.581 0.019-0.050 0.094-0.181 0.156-0.281 0.313-0.5 0.631-1.094 0.669-1.25 0.025-0.087 0.106-0.3 0.181-0.456 0.075-0.163 0.25-0.619 0.375-1.012 0.131-0.394 0.262-0.744 0.294-0.781 0.025-0.031 0.050-0.119 0.050-0.194s0.056-0.375 0.125-0.663c0.256-1.1 0.313-1.719 0.313-3.65 0-1.938-0.063-2.637-0.319-3.675-0.063-0.269-0.119-0.544-0.119-0.613 0-0.063-0.025-0.162-0.063-0.225-0.031-0.056-0.156-0.406-0.275-0.775-0.125-0.369-0.262-0.75-0.306-0.844-0.050-0.1-0.156-0.356-0.231-0.581s-0.188-0.463-0.25-0.531c-0.063-0.069-0.275-0.444-0.469-0.825-0.194-0.388-0.381-0.719-0.413-0.737-0.031-0.025-0.238-0.3-0.456-0.619-1.256-1.794-3.406-3.744-5.194-4.694-0.306-0.163-0.688-0.369-0.844-0.462-0.156-0.087-0.45-0.225-0.656-0.306-0.813-0.319-1.387-0.525-1.594-0.588-0.119-0.037-0.288-0.1-0.375-0.144s-0.406-0.131-0.719-0.188c-0.306-0.063-0.756-0.156-1-0.206-0.525-0.106-4.556-0.163-5.25-0.069zM17.781 1.469c0.45 0.050 1.069 0.15 1.375 0.225 0.669 0.156 2.044 0.606 2.644 0.856 0.569 0.244 1.744 0.888 2.325 1.275 0.944 0.631 2.563 2.031 2.563 2.212 0 0.044 0.075 0.131 0.163 0.188 0.206 0.138 1.169 1.419 1.563 2.088 0.681 1.162 0.95 1.725 1.281 2.706 0.137 0.419 0.281 0.819 0.313 0.887 0.125 0.275 0.375 1.525 0.462 2.3 0.194 1.744 0.063 3.869-0.325 5.294-0.050 0.188-0.169 0.569-0.269 0.844s-0.238 0.7-0.313 0.95c-0.075 0.25-0.25 0.644-0.387 0.875s-0.288 0.512-0.331 0.625c-0.069 0.169-0.394 0.744-0.688 1.212-0.181 0.294-1.025 1.375-1.363 1.738-0.563 0.606-1.381 1.35-1.919 1.744-0.256 0.194-0.55 0.425-0.656 0.512-0.1 0.094-0.481 0.331-0.844 0.525-0.363 0.2-0.7 0.387-0.75 0.419-0.35 0.219-1.769 0.781-2.275 0.906-0.206 0.050-0.438 0.119-0.506 0.15-0.2 0.094-0.837 0.238-1.631 0.381-0.962 0.169-2.519 0.219-3.494 0.125-0.919-0.094-2.219-0.344-2.481-0.475-0.106-0.050-0.256-0.094-0.325-0.094-0.113 0-0.506-0.137-1.787-0.625-0.363-0.131-2.069-1.075-2.362-1.306-0.131-0.094-0.456-0.337-0.731-0.538-0.931-0.681-2.138-1.944-2.944-3.069-0.825-1.15-1.725-2.988-2-4.1-0.050-0.219-0.137-0.481-0.188-0.594-0.131-0.294-0.381-1.569-0.469-2.387-0.094-0.881-0.044-2.681 0.1-3.506 0.137-0.813 0.337-1.662 0.444-1.863 0.050-0.094 0.087-0.225 0.087-0.3 0-0.15 0.319-1.031 0.538-1.494 0.081-0.181 0.15-0.369 0.15-0.419s0.056-0.169 0.125-0.256c0.069-0.088 0.219-0.331 0.331-0.544 0.4-0.769 0.469-0.875 1.194-1.838 0.612-0.813 1.631-1.875 2.325-2.425 0.619-0.494 1.513-1.131 1.775-1.269 0.119-0.063 0.387-0.206 0.594-0.319 1.375-0.756 3.269-1.387 4.781-1.594 1.275-0.169 2.469-0.181 3.906-0.025z"></path>
<path d="M9.588 6.362c-0.394 0.138-0.762 0.444-1.556 1.275-1.287 1.356-1.706 2.275-1.763 3.9-0.037 1.056 0.063 1.756 0.356 2.431 0.025 0.069 0.119 0.294 0.194 0.5 0.181 0.469 1 2.087 1.194 2.363 0.081 0.106 0.213 0.331 0.3 0.488s0.4 0.613 0.7 1.012c2.369 3.163 5.575 5.637 8.738 6.756 0.256 0.087 0.525 0.194 0.594 0.225s0.4 0.119 0.744 0.194c0.512 0.113 0.75 0.125 1.438 0.106 0.975-0.038 1.5-0.156 2.219-0.506s1.163-0.688 1.981-1.506c0.869-0.863 0.944-1.012 0.969-1.788 0.025-0.988 0.1-0.875-1.906-2.869-0.975-0.969-1.863-1.831-1.981-1.906-0.325-0.219-0.594-0.288-1.094-0.288-0.762 0-1.006 0.144-2.15 1.281-0.538 0.531-1.006 0.969-1.050 0.969-0.1 0-1.031-0.712-1.775-1.356-0.863-0.744-2.044-2.056-2.769-3.056-0.044-0.063 0.188-0.331 0.95-1.1 1.206-1.219 1.331-1.431 1.331-2.244 0-0.4-0.031-0.575-0.137-0.8-0.1-0.2-0.669-0.825-1.95-2.112-1.769-1.781-1.813-1.825-2.206-1.95-0.481-0.156-0.944-0.162-1.369-0.019zM12.006 9.481c0.813 0.806 1.512 1.531 1.556 1.613 0.131 0.244-0.037 0.481-1.031 1.469-1.1 1.094-1.219 1.281-1.219 1.994 0 0.606 0.037 0.675 0.863 1.725 1.137 1.438 3.563 3.694 4.506 4.181 0.444 0.238 0.913 0.281 1.413 0.131 0.344-0.1 0.425-0.163 1.369-1.125 0.556-0.556 1.069-1.038 1.15-1.063 0.094-0.025 0.206 0 0.344 0.087 0.281 0.169 3.031 2.962 3.1 3.144 0.038 0.094 0.025 0.2-0.031 0.306-0.094 0.188-0.913 0.969-1.369 1.306-0.706 0.519-2.012 0.844-2.825 0.694-2.431-0.45-5.556-2.306-7.806-4.644-1.775-1.85-3.156-4.012-3.831-6.012-0.456-1.35-0.419-2.075 0.156-3.287 0.25-0.512 0.375-0.681 0.925-1.244 0.75-0.769 0.938-0.906 1.125-0.806 0.075 0.037 0.794 0.725 1.606 1.531z"></path>
</symbol>

<symbol id="icon-telegram" viewBox="0 0 32 32">
<path fill="#000" style="fill: var(--color1, #000)" d="M13.969 0.094c-2.887 0.375-5.531 1.481-7.844 3.269-0.731 0.569-1.975 1.794-2.581 2.544-1.725 2.137-2.869 4.662-3.356 7.412-0.175 0.975-0.244 3.319-0.131 4.388 0.269 2.494 1.137 4.938 2.487 7.012 0.613 0.938 1.15 1.606 1.988 2.462 2.619 2.688 5.925 4.313 9.688 4.75 0.838 0.1 2.875 0.081 3.781-0.025 4.675-0.581 8.85-3.2 11.456-7.188 1.313-2.006 2.15-4.313 2.45-6.719 0.125-1.012 0.125-2.981 0-4-0.575-4.637-3.188-8.825-7.125-11.412-2.056-1.35-4.344-2.188-6.781-2.494-0.95-0.113-3.131-0.113-4.031 0z"></path>
<path fill="#fff" style="fill: var(--color3, #fff)" d="M23.069 9.781c0.156 0.088 0.256 0.262 0.331 0.6 0.094 0.444-0.7 5.85-1.587 10.756-0.288 1.594-0.387 1.975-0.606 2.35-0.206 0.356-0.469 0.512-0.869 0.512-0.462 0-0.825-0.15-1.538-0.637-0.356-0.238-1.563-1.050-2.681-1.8-2.213-1.488-2.494-1.725-2.494-2.137 0-0.137 0.037-0.319 0.088-0.413 0.113-0.206 1.219-1.294 3.331-3.281 1.837-1.731 2.175-2.1 2.119-2.319-0.050-0.2-0.225-0.231-0.519-0.1-0.131 0.056-1.769 1.125-3.637 2.375-1.869 1.244-3.556 2.337-3.75 2.425-0.738 0.337-1.481 0.262-3.444-0.356-1.219-0.387-1.362-0.444-1.563-0.631-0.469-0.438-0.138-0.794 1.319-1.419 0.563-0.244 2.406-1.037 4.088-1.769 4.775-2.069 8.569-3.637 9.756-4.025 0.9-0.294 1.275-0.325 1.656-0.131z"></path>
</symbol>

<symbol id="icon-arrow-left" viewBox="0 0 32 32">
<path d="M12.586 27.414l-10-10c-0.781-0.781-0.781-2.047 0-2.828l10-10c0.781-0.781 2.047-0.781 2.828 0s0.781 2.047 0 2.828l-6.586 6.586h19.172c1.105 0 2 0.895 2 2s-0.895 2-2 2h-19.172l6.586 6.586c0.39 0.39 0.586 0.902 0.586 1.414s-0.195 1.024-0.586 1.414c-0.781 0.781-2.047 0.781-2.828 0z"></path>
</symbol>
<symbol id="icon-arrow-right" viewBox="0 0 32 32">
<path d="M19.414 27.414l10-10c0.781-0.781 0.781-2.047 0-2.828l-10-10c-0.781-0.781-2.047-0.781-2.828 0s-0.781 2.047 0 2.828l6.586 6.586h-19.172c-1.105 0-2 0.895-2 2s0.895 2 2 2h19.172l-6.586 6.586c-0.39 0.39-0.586 0.902-0.586 1.414s0.195 1.024 0.586 1.414c0.781 0.781 2.047 0.781 2.828 0z"></path>
</symbol>
<symbol id="icon-location" viewBox="0 0 32 32">
<path d="M15 0.662c-0.119 0.012-0.5 0.056-0.844 0.094-4.875 0.519-9.406 3.631-11.744 8.063-0.85 1.613-1.4 3.375-1.675 5.338-0.1 0.725-0.1 2.962 0 3.688 0.125 0.906 0.325 1.825 0.556 2.594 1.456 4.819 5.138 8.581 9.938 10.163 1.594 0.525 3 0.738 4.831 0.738 1.762-0.006 3.137-0.219 4.706-0.738 5.338-1.756 9.313-6.288 10.325-11.775 0.244-1.306 0.319-2.569 0.231-3.8-0.275-3.787-1.725-7.063-4.294-9.706-2.481-2.55-5.55-4.088-9.125-4.569-0.531-0.069-2.537-0.131-2.906-0.088zM17.969 2.188c0.988 0.138 2.212 0.456 3.056 0.788 4.813 1.913 8.137 6.156 8.825 11.275 0.113 0.869 0.113 2.619-0.006 3.544-0.438 3.425-2.238 6.694-4.912 8.925-1.5 1.256-3.519 2.3-5.394 2.781-1.313 0.337-2.106 0.438-3.537 0.438-2.2 0.006-4.050-0.419-6.050-1.375-4.206-2.025-7.094-5.969-7.769-10.619-0.112-0.781-0.131-1.106-0.1-2.287 0.031-1.525 0.131-2.206 0.506-3.506 0.919-3.181 2.962-5.969 5.725-7.794 2.856-1.888 6.238-2.644 9.656-2.169z"></path>
<path d="M15.1 7.125c-2.213 0.35-3.987 1.644-4.981 3.619-1.325 2.65-0.619 6.181 1.994 9.969 0.9 1.306 2.037 2.675 3.069 3.694 0.5 0.488 0.519 0.5 0.819 0.5s0.319-0.012 0.819-0.5c1.938-1.913 3.819-4.538 4.713-6.575 1.387-3.169 1.337-5.744-0.163-7.963-0.394-0.581-1.262-1.406-1.894-1.8-0.606-0.375-1.425-0.706-2.113-0.856-0.556-0.119-1.762-0.162-2.262-0.088zM17.281 8.594c0.587 0.162 1.456 0.606 1.944 0.988 0.825 0.662 1.431 1.575 1.75 2.637 0.144 0.481 0.169 0.681 0.169 1.375 0.012 1.863-0.694 3.781-2.238 6.094-0.913 1.356-2.762 3.6-2.931 3.544-0.131-0.044-1.5-1.644-2.156-2.525-1.762-2.356-2.694-4.363-2.95-6.363-0.356-2.787 1.519-5.338 4.306-5.844 0.425-0.081 1.669-0.019 2.106 0.094z"></path>
<path d="M15.338 9.969c-0.6 0.131-1.075 0.394-1.531 0.844-1.719 1.7-0.944 4.575 1.412 5.225 0.4 0.113 1.156 0.113 1.569 0 1.606-0.425 2.606-2.050 2.269-3.675-0.256-1.219-1.313-2.225-2.556-2.425-0.506-0.075-0.688-0.075-1.162 0.031zM16.488 11.344c1.219 0.363 1.656 1.856 0.813 2.813-0.344 0.387-0.669 0.544-1.206 0.581-0.581 0.037-0.988-0.131-1.375-0.563-0.85-0.944-0.475-2.387 0.731-2.806 0.406-0.144 0.625-0.144 1.038-0.025z"></path>
</symbol>
<symbol id="icon-message" viewBox="0 0 32 32">
<path d="M13.969 0.094c-2.9 0.412-5.3 1.381-7.563 3.063-3.506 2.6-5.744 6.444-6.319 10.844-0.144 1.119-0.094 3.6 0.094 4.644 0.306 1.675 0.738 3.006 1.45 4.456 1.738 3.538 4.819 6.369 8.475 7.8 1.338 0.525 2.831 0.887 4.256 1.044 0.912 0.094 3.187 0.044 4.075-0.1 2.631-0.419 5.106-1.469 7.3-3.106 0.788-0.587 2.419-2.219 3.019-3.019 1.8-2.413 2.875-5.144 3.188-8.081 0.106-1.050 0.044-3.281-0.125-4.231-0.613-3.481-2.137-6.425-4.55-8.787-0.844-0.831-1.031-0.994-1.769-1.538-1.994-1.469-4.3-2.444-6.819-2.894-1-0.181-3.719-0.231-4.713-0.094zM18.313 1.525c4.344 0.756 7.994 3.237 10.25 6.975 1.919 3.169 2.538 7.056 1.712 10.738-1.262 5.644-5.863 10.069-11.6 11.162-1.894 0.363-4.4 0.281-6.281-0.206-5.225-1.35-9.3-5.456-10.613-10.694-0.325-1.319-0.375-1.738-0.375-3.5s0.050-2.181 0.375-3.5c0.831-3.313 2.769-6.225 5.5-8.25 2.144-1.587 4.494-2.5 7.281-2.837 0.544-0.063 3.181 0.019 3.75 0.113z"></path>
<path d="M9.262 8.719c-1.081 0.238-2.044 1.025-2.494 2.031-0.331 0.731-0.338 0.856-0.319 5.462l0.019 4.256 0.169 0.462c0.4 1.1 1.263 1.938 2.331 2.275l0.438 0.137h13.188l0.438-0.137c1.094-0.344 1.988-1.238 2.35-2.344l0.15-0.456v-8.813l-0.15-0.456c-0.356-1.088-1.231-1.975-2.313-2.344l-0.413-0.137-6.5-0.012c-5.325-0.006-6.569 0.006-6.894 0.075zM22.419 10.238c0.113 0.037-0.369 0.45-3.094 2.669-1.775 1.438-3.269 2.619-3.325 2.619-0.050 0-1.544-1.181-3.325-2.619-2.706-2.2-3.206-2.631-3.094-2.669 0.075-0.019 2.963-0.037 6.419-0.037s6.344 0.019 6.419 0.037zM11.844 14.256c1.925 1.563 3.588 2.906 3.7 2.987 0.162 0.125 0.25 0.144 0.506 0.119 0.3-0.031 0.4-0.106 4.019-3.037l3.706-3.013 0.094 0.206c0.087 0.175 0.1 0.738 0.1 4.481 0 4.256 0 4.281-0.137 4.575-0.188 0.413-0.6 0.831-1.012 1.031l-0.35 0.175h-12.938l-0.35-0.175c-0.412-0.2-0.825-0.619-1.012-1.031-0.137-0.294-0.137-0.319-0.137-4.512 0-3.456 0.019-4.269 0.088-4.481 0.056-0.175 0.113-0.25 0.156-0.219 0.037 0.031 1.644 1.331 3.569 2.894z"></path>
</symbol>
</defs>
</svg>
