<?xml version="1.0" encoding="utf-8"?>
<!-- Generator: Adobe Illustrator 23.0.1, SVG Export Plug-In . SVG Version: 6.00 Build 0)  -->
<svg version="1.1" id="Слой_1" xmlns="http://www.w3.org/2000/svg" xmlns:xlink="http://www.w3.org/1999/xlink" x="0px" y="0px"
	 viewBox="0 0 512 512" style="enable-background:new 0 0 512 512;" xml:space="preserve">
<style type="text/css">
	.st0{fill:#FFFFFF;}
</style>
<path d="M223.5,1.5C177.3,7.5,135,25.2,98,53.8c-11.7,9.1-31.6,28.7-41.3,40.7C29.1,128.7,10.8,169.1,3,213.1
	c-2.8,15.6-3.9,53.1-2.1,70.2c4.3,39.9,18.2,79,39.8,112.2c9.8,15,18.4,25.7,31.8,39.4c41.9,43,94.8,69,155,76
	c13.4,1.6,46,1.3,60.5-0.4c74.8-9.3,141.6-51.2,183.3-115c21-32.1,34.4-69,39.2-107.5c2-16.2,2-47.7,0-64
	c-9.2-74.2-51-141.2-114-182.6C363.6,19.8,327,6.4,288,1.5C272.8-0.3,237.9-0.3,223.5,1.5z"/>
<path class="st0" d="M369.1,156.5c2.5,1.4,4.1,4.2,5.3,9.6c1.5,7.1-11.2,93.6-25.4,172.1c-4.6,25.5-6.2,31.6-9.7,37.6
	c-3.3,5.7-7.5,8.2-13.9,8.2c-7.4,0-13.2-2.4-24.6-10.2c-5.7-3.8-25-16.8-42.9-28.8c-35.4-23.8-39.9-27.6-39.9-34.2
	c0-2.2,0.6-5.1,1.4-6.6c1.8-3.3,19.5-20.7,53.3-52.5c29.4-27.7,34.8-33.6,33.9-37.1c-0.8-3.2-3.6-3.7-8.3-1.6
	c-2.1,0.9-28.3,18-58.2,38c-29.9,19.9-56.9,37.4-60,38.8c-11.8,5.4-23.7,4.2-55.1-5.7c-19.5-6.2-21.8-7.1-25-10.1
	c-7.5-7-2.2-12.7,21.1-22.7c9-3.9,38.5-16.6,65.4-28.3c76.4-33.1,137.1-58.2,156.1-64.4C357,153.9,363,153.4,369.1,156.5z"/>
</svg>
